<?xml version="1.0" encoding="UTF-8" standalone="no"?>
<svg
   width="1024"
   height="1024"
   viewBox="0 0 1024 1024"
   version="1.1"
   id="svg1"
   sodipodi:docname="SIGTERM Logo.svg"
   inkscape:version="1.4.3 (0d15f75, 2025-12-25)"
   xmlns:inkscape="http://www.inkscape.org/namespaces/inkscape"
   xmlns:sodipodi="http://sodipodi.sourceforge.net/DTD/sodipodi-0.dtd"
   xmlns="http://www.w3.org/2000/svg"
   xmlns:svg="http://www.w3.org/2000/svg">
  <defs
     id="defs1" />
  <sodipodi:namedview
     id="namedview1"
     pagecolor="#ffffff"
     bordercolor="#000000"
     borderopacity="0.25"
     inkscape:showpageshadow="2"
     inkscape:pageopacity="0.0"
     inkscape:pagecheckerboard="0"
     inkscape:deskcolor="#d1d1d1"
     inkscape:zoom="1"
     inkscape:cx="707.5"
     inkscape:cy="513.5"
     inkscape:window-width="2560"
     inkscape:window-height="1369"
     inkscape:window-x="1912"
     inkscape:window-y="-8"
     inkscape:window-maximized="1"
     inkscape:current-layer="svg1" />
  <g
     id="g1"
     style="stroke:#b00b69;stroke-opacity:1;fill:#b00b69;fill-opacity:1">
    <path
       d="m 740.625,962.87 c 0,0 4.60533,-4.35322 9.13533,-8.20322 25.87,-21.98 52.17967,-53.56678 64.31967,-76.07678 2.25,-4.17 4.34,-7.59 4.64,-7.59 0.3,0 2.77,2.25 5.48,5.01 5.78,5.87 17.02,15.2 26.8,22.23 l 2.42,1.74 -3.96,4.13 c -6.54,6.82 -25.28,20.31 -37.61,27.09 -18.69,10.28 -63.42625,29.325 -66.9225,30.93625 -1.565,0.32125 -4.3025,0.73375 -4.3025,0.73375 z M 262,949.63 C 234.32,937.15 209.14,922.48 195.4,910.83 174.06,892.75 150.85,869.8 139.44,855.5 128.45,841.74 108.86,810.48 101.95,795.7 98,787.24 89.53,760.31 86.87,747.78 85.33,740.5 84.67,733.71 84.6,724.5 c -0.1,-12.36 0.03,-13.22 2.55,-17.5 2.61,-4.42 10.33,-12.18 24.84,-24.96 8.14,-7.18 17.59,-19.28 22.24,-28.5 2.72,-5.38 3.05,-7.01 3.06,-15.03 0.03,-11.29 -3.74,-34.24 -6.8,-41.51 -1.28,-3.03 -4.37,-10.22 -6.87,-16 -9.71,-22.45 -12.08,-32.99 -11.39,-50.76 0.56,-14.75 2.6,-21.98 10.67,-38 11.34,-22.48 26.73,-41.31 51.84,-63.41 l 5.24,-4.61 -7.24,-4.36 c -3.98,-2.4 -9.72,-6.33 -12.74,-8.74 -6.33,-5.03 -20,-18.22 -20,-19.29 0,-0.39 7.86,-8.01 17.46,-16.93 l 17.46,-16.22 5.07,-12.04 c 2.79,-6.62 4.88,-12.53 4.65,-13.12 -0.22,-0.6 -4.78,-1.64 -10.13,-2.31 -7.08,-0.9 -12.88,-2.47 -21.36,-5.78 -14.32,-5.59 -21.09,-9.32 -33.46,-18.44 -9.6,-7.08 -9.61,-7.09 -17.18,-20.5 -4.17,-7.38 -8.66,-16.3 -9.98,-19.82 -3.76,-9.99 -10.12,-31.98 -13.07,-45.17 -2.31,-10.35 -2.58,-13.24 -1.98,-21 2.42,-31.01 21.63,-72.85 42.77,-93.14 11.33,-10.88 16.67,-14.94 30.41,-23.16 18.82,-11.24 39.29,-17.89 65.05,-21.13 14.99,-1.89 16.8,-1.93 24.06,-0.55 10.55,2 36.94,10.64 41.81,13.7 2.16,1.35 7.68,4.4 12.27,6.78 6.39,3.31 10.88,6.76 19.16,14.69 37.22,35.66 52.36,78.59 44.84,127.09 -0.62,4 -1.26,8.29625 -1.26,8.29625 0,0 3.32,-1.58625 5.71,-3.78625 8.85,-8.15 26.75,-17.65 46.18,-24.5 13.56,-4.77 14.27,-4.91 21.82,-4.29 13.26,1.1 17.49,4.13 22.05,15.76 4.11,10.5 3.78,12.23 -3.99,20.87 -16.85,18.72 -22.08,27.3 -24.97,40.96 -2.44,11.49 -1.35,19.16 5.19,36.57 8.36,22.28 16.3,36.14 32.15,56.14 19.07,24.05 32.64589,36.85947 49.13243,49.48984 l 4.98547,3.25745 -0.3379,6.28271 c -0.93,8.56 -4.32,18.48 -7.72,22.6 -3.87,4.7 -13.47,11.95 -22.61,17.07 -3.92,2.2 -7.14,4.27 -7.16,4.59 -0.01,0.32 1.75,1.17 3.91,1.89 5.87,1.93 17.2,0.84 25.29,-2.44 l 6.71,-2.73 2.96,2.11 c 4.71,3.36 11.33,6.03 14.96,6.06 l 3.35,0.02 -1.92,-3.26 C 529.6,471.2 527,463.23 527,459.57 c 0.01,-1.69 0.89,-4.52 1.98,-6.3 2.16,-3.55 5.52,-15.78 6.59,-24.02 0.363,-2.76786 0.93117,-5.18334 0.93117,-5.18334 0,0 1.12652,-0.0667 1.67883,-0.0667 10.74,0 25.23,-27.53 41.33,-78.5 19.35,-61.27 17.91,-88.06 -6.09,-113.5 -5.11,-5.41 -5.21,-5.64 -6.36,-14.37 -0.64,-4.87 -3.365,-13.3975 -4.985,-18.3975 -1.62,-5 -2.95,-9.53 -2.95,-9.53 0,0 16.525,1.2075 24.425,2.8375 10.03,2.07 36.25,10.43 43.45,13.84 3.03,1.44 7.97,4.15 11,6.03 3.03,1.88 5.65,3.27 5.82,3.09 0.18,-0.17 -0.37,-1.66 -1.22,-3.31 -5.7,-11.02 -9.37984,-33.7892 -6.97984,-45.0892 l 1.86484,-5.8233 1.225,5.78846 c 0.74,3.27 3.06363,9.56404 4.97363,13.42404 3.42,6.9 15.94439,24.39576 17.43,24.51 0.43105,0.0332 0.0264,-2.55 -0.69363,-5.67 -4.35,-18.73 -1.31,-70.26 4.73,-80.09 6.38,-10.39 27.28,-32.01 36.96,-38.24 14.13,-9.09 35.2,-18.94 45.16,-21.11 16.11,-3.52 37.14,-2.5 64.16,3.1 12.17,2.52 55.72,22.36 67.4,30.7 9.9,7.08 20.05,16.42 23.49,21.63 8.24,12.46 15.09,30.37 21.71,56.68 5.26,20.92 6.31,28.14 6.4,44 0.06,12.15 -0.22,14.45 -2.82,23 -3.33,10.94 -11.97,32.88 -16.21,41.15 -2.22,4.33 -5.7,8.15 -14.9,16.37 -17.97,16.05 -22.59,19.13 -46,30.71 -5.5,2.72 -9.40125,5.195 -10.27,5.22 -1.88625,2.305 21.11,22.43 40.03,33.93 l 2.75,1.67 -2.15,4.23 c -7.34,14.38 -23.33385,32.99155 -26.56,34.72 -0.57742,0.30936 -1.18951,0.52419 -1.18951,0.52419 0,0 3.76951,4.15581 8.50951,8.70581 26.7,25.62 53.13,61.38 60.08,81.27 2.6,7.42 2.79,9.01 2.63,22 -0.22,17.99 -2.74,30.92 -7.85,40.28 -3.00486,5.51812 -5.77972,8.21629 -5.77972,8.21629 0,0 -1.19508,-1.00362 -2.44028,-2.15629 -8.18,-7.55 -35.06,-25.48 -45.26,-30.18 -28.8,-13.28 -35.1,-15.98 -46,-19.71 -9.21,-3.16 -35.99,-9.85 -42.2,-10.55 -3.21,-0.37 -6.59375,-1.29438 -6.59375,-1.29438 0,0 1.51375,-3.82562 3.42375,-7.67562 4.31,-8.68 5.79,-18.17 5.06,-32.43 -0.76,-14.84 -0.7,-14.75 -7.52,-9.53 -9.85,7.54 -42.32,24.17 -43.61,22.33 -0.12,-0.17 -2.67,-3.9 -5.66,-8.3 -6.77,-9.93 -32.63,-41.17 -43.3,-52.28 -4.36,-4.56 -10.75,-10.29 -14.17,-12.74 -6.81,-4.85 -30.64,-19.61 -31.03,-19.21 -0.14,0.13 1.09,4.97 2.74,10.74 3.41,11.98 9.01,36.02 10.91,46.76 1.2,6.82 1.16,7.36 -0.64,8.69 -3.82,2.83 -29,13.81 -38.34,16.71 -5.26,1.63 -17.22,5.38 -26.57,8.32 -40.84,12.84 -67.42,19.22 -88,21.11 -6.73913,0.61844 -12.84368,-0.0662 -12.84368,-0.0662 0,0 -1.00757,-0.88877 -1.65632,-1.82384 -0.83,-1.19 -4.23,-5.33 -7.56,-9.19 -10.13,-11.74 -26.9,-31.87 -28.68,-34.44 -1.71258,-2.08217 -1.77988,-1.59544 -2.28,-0.5 -0.41944,0.88427 -5.24,11.15 -10.93,22.42 -5.69,11.27 -11.37,23.42 -12.62,27 -1.25,3.58 -2.56164,7.84717 -2.56164,7.84717 0,0 -15.92836,0.84283 -21.26836,-0.32717 -1.23353,-0.26859 -2.85753,-0.64597 -3.06193,-0.77003 0,0 -0.56106,-2.0822 -0.94807,-3.57997 -3.61,-14.04 -6.69,-37.54 -8.13,-62.1 -0.54,-9.12 -1.38,-18.59 -1.87,-21.07 -0.49,-2.48 -1.2,-8.21 -1.59,-12.75 -0.39,-4.54 -1.05,-8.25 -1.48,-8.25 -1.74,0 -20.27,15.22 -30.42,25 -17.67,17.02 -37.3,41.86 -42.04,53.2 l -1.51,3.62 -5.6,-1.46 c -11.02,-2.88 -45.42,-18.89 -58.98,-27.45 -3.4,-2.15 -6.63,-3.91 -7.18,-3.91 -0.55,0 -1.78,3.04 -2.75,6.75 -0.97,3.71 -2.65,9.67 -3.74,13.25 -2.88,9.46 -3.55,25.89 -1.36,33.54 1.81,6.3 8.73,19.93 13.94,27.46 2.97,4.28 3.14,5.04 3.46,15.73 0.33,11.13 0.3,11.28 -2.96,17 -11.6,20.35 -24.6,38.01 -35.87,48.71 l -6.26,5.94 0.5,9.56 c 0.27,5.26 1.74,16.09 3.26,24.06 l 2.76,14.5 24.87,24.79 c 13.67,13.63 25.83227,24.64934 25.83227,24.64934 0,0 -3.63227,4.82066 -6.89227,8.27066 -21.74,23.08 -28.96,32.62 -37.35,49.33 -15.89,31.65 -16.65,54.99 -2.89,88.62 10.72,26.19 42.27,66.68 69.71,89.45 7.6025,6.4375 9.325,8.0175 9.325,8.0175 0,0 -8.7925,-1.845 -19.875,-7.9975 z m 686.15,-18.71 c -9.13,-1.18 -27.45,-5.44 -36.01,-8.36 -8.27,-2.83 -40.22,-19.29 -52.97,-27.3 -10.04,-6.3 -24.77,-18.08 -31.78,-25.42 -5.62,-5.89 -15.17,-18.31 -20.61,-26.84 -4.52,-7.09 -12.96,-28.23 -15.36,-38.5 -2.79,-11.98 -2.57,-31.53 0.48,-41.47 2.55,-8.33 6.36169,-16.3008 6.92515,-16.88637 l 0.30254,-0.42511 c 0,0 11.55176,7.6524 15.73231,11.84212 4.34,4.34 17.01,21.35936 20.21,26.95936 1.25,2.19 2.81,4.65 3.47,5.48 3.46,4.32 7.41,13.38 8.82,20.26 2.87,13.91 13.49,35.14 24.53,49.01 10.26,12.89 35.77,35.39 53.11,46.85 4.12,2.72 12.45,7.48 18.5,10.56 14.11,7.19 16.5,8.89 16.5,11.77 0,2.01 -2.78,3.91 -5,3.41 -0.28,-0.06 -3.36,-0.48 -6.85,-0.94 z m -64.36,-68.67 c -5.64,-5.78 -18.45,-24.63 -23.34,-34.34 -4,-7.95 -6.79,-16.44 -8.36,-25.41 -1.17,-6.69 -6.71,-18.04 -14.37,-29.47 -10.11,-15.07 -13.52,-18.64 -27.98,-29.24 -17.45,-12.81 -25.55,-19.53 -29.1,-24.2 -3.48,-4.56 -7.28645,-14.05678 -7.64,-17.12 -0.17678,-1.20424 -0.19216,-2.57322 -0.19216,-2.57322 0,0 8.32491,-9.2885 28.40216,-30.21678 12.67,-13.21 14.84,-15.94 15.68,-19.75 1.52,-6.86 3.15,-30.38 2.46,-35.42 l -0.62,-4.52 3.88,1.59 c 13.9,5.68 25.395,10.51875 31.785,16.54875 3.63264,3.42452 5.03809,7.49051 5.03809,7.49051 0,0 -0.25649,1.25713 -0.44684,2.37449 -0.29625,1.54 -0.75125,2.98375 -1.24875,8.32875 -0.175,6.865 0.2025,8.2075 5.3225,20.4375 7.39,17.66 21.67,40.01 31.45,49.24 4.94,4.66 18.92916,21.5972 20.355,25.375 0.81649,2.1633 2.29873,5.48 2.29873,5.48 0,0 0.83627,17.09038 0.83627,30.055 0,26.39 -2.78,39.26 -12.93,59.88 -2.79,5.65 -5.07,10.54 -5.07,10.87 0,0.59 -11.33581,19.47258 -11.33581,19.47258 0,0 -2.32419,-2.27258 -4.87419,-4.88258 z M 606.13872,826.51777 c 0,0 -2.18872,-6.86777 -3.58872,-11.58777 -4.09,-13.7 -13.66,-28 -23.07,-34.49 -5.03,-3.46 -5.61,-3.63 -8.43,-2.46 -3.46,1.43 -7.04,5.36 -15.53,17.03 -6.42,8.83 -10.89,13.14 -17.43,16.82 l -4.12,2.31 -4.03,-8.78 c -6.62,-14.38 -14.53,-22.09 -20.34,-19.8 -2.81,1.11 -9.77,9.42 -18.39,21.94 -3.41,4.95 -7.1,10.12 -8.21,11.5 l -2,2.5 -4.66,-5.5 C 467.7,805.8 451,789.9 447.32,788.36 c -6.04,-2.52 -11.18,-0.47 -17.2,6.89 -5.71,6.97 -10.14,15.5 -10.87,20.93 -0.28,2.1 -1.21,4.945 -1.21,4.945 0,0 -5.06,-5.985 -8.76,-13.125 -2.14,-4.12 -5.18,-9.53 -6.77,-12 -3.89,-6.1 -6.51,-13.24 -6.5,-17.76 0.01,-4.43 3.58,-20.09 8.35,-36.59 l 3.42,-11.86 -6.5,-4.64 c -3.57,-2.56 -12.18,-9.03 -19.14,-14.39 -7.34,-5.65 -14.89,-10.59 -18,-11.77 -2.95,-1.13 -10.01,-4.28 -15.7,-7.02 -7.65,-3.68 -11.49,-4.97 -14.8,-4.97 -3.25,0 -12.05,2.87 -32.21,10.5 -15.26,5.78 -29.04,10.5 -30.62,10.5 -4.81,0 -10.3325,-4.435 -17.565,-13.4475 -5.58,-5.77 -9.76,-8.5475 -14.835,-9.5225 -5.03,-2.38 -7.92,-4.85 -15.37,-13.15 -5.04,-5.62 -9.99,-11.83 -10.99,-13.8 -2.17,-4.26 -3.72,-13.68 -4.65,-28.25 l -0.68,-10.68 5.47,-5.82 c 8.03,-8.54 23,-26.99 27.04,-33.33 1.92,-3.03 5.24,-8.88 7.37,-13 l 3.86,-7.5 0.02,-13.5 0.02,-13.5 -5.32,-8.5 c -2.92,-4.67 -6.92,-11.82 -8.87,-15.87 l -3.56,-7.37 0.47,-13.13 c 0.49,-13.4 0.47223,-19.63353 3.21223,-21.71485 0,0 5.54777,2.50485 8.56777,4.18485 15.88,8.86 58.32,25.19 60.08,23.11 0.33,-0.39 6.12,-9.63 12.86,-20.53 14.22,-22.99 20.12,-31.05 33.81,-46.18 10.21,-11.28 15.89,-15.81 16.68,-13.31 0.23,0.72 0.71,6.71 1.07,13.31 0.82,15.23 3.14,35.43 4.48,38.94 0.56,1.48 1.02,4.61 1.02,6.97 v 4.27 l -6.25,1.82 c -10.9,3.18 -28.95,10.6 -35.61,14.65 -7.18,4.36 -24.68,17.8 -32.76,25.15 l -5.28,4.81 -3.3,-1.68 c -1.81,-0.93 -6.14,-3.69 -9.62,-6.15 -3.47,-2.46 -6.59,-4.2 -6.92,-3.87 -1.05,1.05 7.89,19.84 12.09,25.42 8.57,11.38 30,28.56 44.54,35.71 10.47,5.15 33.9,13.96 44.04,16.56 4.08,1.05 16.42,3.04 27.41,4.42 17.87,2.24 21.3,2.4 32.47,1.49 6.86,-0.55 13.45,-1.01 14.65,-1.01 1.78,0 2.5,-1.1 4.1,-6.25 1.6,-5.17 1.91,-8.94 1.79,-21.81 -0.12,-13.63 -0.52,-17.12 -3.19,-28.09 -1.67,-6.88 -3.89,-14.75 -4.93,-17.49 -2.37,-6.22 -9.07,-16.16 -15.17,-22.49 l -4.67,-4.85 2.17,-5.76 c 2.81,-7.48 9.205,-19.37313 10.21438,-20.68625 0.37255,-0.48303 0.9126,-1.02484 0.9126,-1.02484 0,0 4.72411,4.17174 9.13302,9.95109 2.52,3.3 8.21,10.05 12.63,15 4.43,4.95 9.07,10.3 10.3,11.88 l 2.25,2.89 12.75,-1.2 c 29.87,-2.8 70.34,-11.85 93.75,-20.96 7.15,-2.78 20.88,-8.02 30.5,-11.64 9.62,-3.62 22.85,-8.64 29.39,-11.16 l 11.9,-4.59 -0.6,-12.61 c -0.55,-11.66 -3.16,-25.14 -7.52,-38.86 -0.67609,-2.13482 -1.39903,-3.77964 -1.39903,-3.77964 0,0 7.10659,3.48506 14.13903,11.27964 15.5,15.64 41.85,46.67 54.4,64.07 7.38,10.23 8.45,11.16 12.07,10.55 5.09,-0.86 16.75,-4.31 22.12,-6.54 4.38,-1.82 12.85,-7.02 20.42,-12.53 l 2.41,-1.76 -0.65,6.48 c -0.61,6.09 -2.91,13.49 -7.45,23.99 -1.43684,3.31651 -2.92715,6.08083 -2.92715,6.08083 0,0 -4.87357,-0.98464 -9.43035,-1.75833 -16.11,-2.44 -23.5525,-3.0025 -37.325,-2.44 L 699.5625,498.635 692.5,490.6 c -3.85,-4.08 -9.2,-8.87 -11.9,-10.66 l -4.89,-3.24 -14.61,1.17 c -24.61,1.98 -32.67,4.52 -49.91,15.73 -20.13,13.1 -31.32,25 -39.1,41.56 -4.99,10.64 -6.88,17.36 -9.57,34.08 l -1.56,9.66 3.07,6.86 3.07,6.86 5.7,0.05 c 52.26,0.42 52.68,0.41 66.2,-1.63 11.53,-1.73 18.4,-2.03 47,-2.03 34.83,0 47.31,0.62 82.45,4.12 16.83,1.68 22.33,2.61 27.9,4.74 6.57,2.51 7.15,3 10.91,9.14 l 3.97,6.49 -0.61,9.66 c -0.76,11.86 -2.93,23.6 -5.2,28.02 -2.59,5.08 -6.91,10.34 -17.91,21.82 -5.53,5.78 -13.06,13.91 -16.75,18.07 -5.94,6.73 -8.12,8.34 -19.47,14.45 -7.04,3.78 -14.85,7.99 -17.36,9.36 l -4.57,2.48 -15.43,-7.61 c -17.01,-8.39 -30.52,-13.96 -41.88,-17.27 -7.44,-2.17 -7.48,-2.17 -15,-0.29 -20.7,5.15 -26.39,8.3 -36.15,20.02 -4.58,5.51 -4.9,6.26 -4.9,11.48 0,8.19 3.57,27.74 6.93,37.93 3.73,11.34 4.68,19.58 3.06,26.53 -3.34,14.31 -7.37,23.61 -14.11,32.6 -3.97,5.29 -5.74128,5.76777 -5.74128,5.76777 z M 540.59,692.78 c -1.03,-13.59 -4.13,-28.27 -9.17,-43.35 -6.45,-19.31 -7.43,-21.16 -15.39,-28.93 l -7.16,-7 -3.51,4 c -11.15,12.73 -18.25,24.76 -23.24,39.32 -1.71,4.98 -6.09,26.79 -6.11,30.43 -0.02,1.65 2.06,0.49 9.11,-5.12 8.91,-7.09 13.05,-9.26 23.34,-12.25 l 7.87,-2.28 5.85,6.45 c 7.74,8.53 15.19,19.88 17.2,26.2 1.34,4.22 1.85,1.05 1.21,-7.47 z m 369.21,28.86 c -2.04,-2.94 -6.45,-8.36 -9.8,-12.05 -13.67,-15.09 -26.715,-36.175 -31.485,-50.025 -0.87603,-2.54708 -1.49852,-4.41563 -1.49852,-4.41563 0,0 0.28536,-2.33665 0.69852,-4.55125 1.74441,-7.73319 -0.595,-21.32812 -8.075,-28.56812 -6.72,-6.51 -31.04,-21.13 -46.14,-27.72 -17.78,-7.77 -41.23,-12.47 -71.21,-14.27 -32.94,-1.99 -96.81,-0.48 -108.6,2.55 -3.2,0.82 -10.4,1.59 -16,1.7 l -10.19,0.21 -0.32,-3.34 c -0.63,-6.59 8.82,-31.3 16.28,-42.53 3.75,-5.65 13.86,-15.18 21.33,-20.1 6.47,-4.26 35.53,-10.23 60.3,-12.39 8.94,-0.78 46.49,0.87 54.41,2.39 1.65,0.32 5.92,1.21 9.5,1.99 3.58,0.77 10.33,2.15 15,3.06 30.15,5.89 61.49,20.11 96.49,43.8 12.91,8.74 27.33,22.26 36.19,33.94 4.29,5.64 5.87,8.98 9.23,19.5 5.08,15.87 7,24.83 8.18,38.18 1.5,16.99 -1.79,43.41 -7.03,56.5 -3.04,7.61 -13.04,21.5525 -13.04,21.5525 0,0 -2.19,-2.4825 -4.22,-5.4125 z M 491.38,470.69 c 17.87,-11.3 19.11,-12.42 23.45,-21.19 4.28,-8.68 6.17,-15.92 6.17,-23.69 0,-3.4635 -0.26131,-7.4062 -0.26131,-7.4062 0,0 -1.15927,-0.57466 -1.88869,-1.1638 -14.75,-11.93 -34.6,-32.31 -51.18,-52.53 -32.63,-39.78 -41.85,-67.62 -31.13,-94 3.06,-7.54 13.57,-23.34 20.87,-31.37 5.22,-5.74 5.59,-6.49 5.59,-11.14 0,-11.41 -7.57,-26.15 -16.18,-31.49 -9.98,-6.2 -25.34,-5.57 -43.91,1.8 -9.6,3.8 -27.0375,12.88 -32.7775,17.13 -1.75,1.3 -3.51,2.36 -3.51,2.36 0,0 0.0275,-5.1 0.2275,-11.33 0.32,-10.08 -0.68742,-22.88629 -2.26742,-27.01629 -0.0381,-0.0979 -0.36641,-0.9856 -0.36641,-0.9856 0,0 7.48079,-10.41237 15.20383,-17.93811 16.25,-15.84 36.92,-26.27 59.08,-29.8 11.91,-1.91 32.82,-1.45 47,1.03 38.26,6.67 60.22,34.18 74.26,93 1.23,5.14 2.59,7.69 6.66,12.5 5.83,6.88 13.72,21.63 15.53,29.04 3.98,16.33 -0.84,41.98 -16.93,90 -12.31,36.76 -23.78,58.77 -32.14,61.69 -0.76178,0.26442 -3.70949,0.48437 -3.70949,0.48437 0,0 0.68471,3.52576 -5.1e-4,8.81563 -0.59,4.61 -2.67,13.19 -4.62,19.06 -3.45,10.43 -3.5,10.82 -2.17,16.32 0.75,3.1 1.6963,6.41733 2.1,7.38 0.3659,0.87253 0.95424,2.06285 0.95424,2.06285 0,0 -3.59207,-1.42068 -6.85424,-4.68285 l -4.37,-4.37 -2.86,2.35 c -3.33,2.75 -14.16,6.42 -18.71,6.33 -1.44044,-0.0255 -2.92834,-0.16546 -2.92834,-0.16546 0,0 0.84158,-0.56109 1.66834,-1.08454 z m 7.23,-143.29 c 2.1,-5.03 2.9,-18.76 1.49,-25.42 -1.4,-6.59 -8.26,-20.84 -11.5,-23.89 l -2.33,-2.18 -1.78,3.75 c -7.79,16.43 -5.11,33.77 7.36,47.59 1.86,2.06 3.8,3.75 4.32,3.75 0.51,0 1.61,-1.62 2.44,-3.6 z"
       fill="rgba(0,0,0,1)"
       id="path1"
       style="fill:#b00b69;fill-opacity:1;stroke:#b00b69;stroke-opacity:1"
       sodipodi:nodetypes="cccscccccccccccccccccccccccccscccccccccccccccccccccccccccccccccccccccccccccscccscccsccccccsccccccccccsccccccsccccccccccccccccccccccccccccccssccsccssscccccsscccccccccccccccccccccccccscccccsccsccccccccscccccccccccccsccsscccccccccccccccccscccccccccscsccccccccccccccccccscccccscccccccscccccscccccccccccccccscccccccccccccccccccccccccccccscccccccccccccccscccccccccccsccccccccccccccccccccccccccccccccscccccscccsccccccccccccccccsccccccccccccscc" />
  </g>
</svg>
