<svg xmlns="http://www.w3.org/2000/svg" viewBox="0 0 128 128" fill="none">
  <rect width="128" height="128" fill="#0d1117"/>
  <!-- terminal grid lines -->
  <line x1="0" y1="32" x2="128" y2="32" stroke="#1a2332" stroke-width="1"/>
  <line x1="0" y1="64" x2="128" y2="64" stroke="#1a2332" stroke-width="1"/>
  <line x1="0" y1="96" x2="128" y2="96" stroke="#1a2332" stroke-width="1"/>
  <line x1="32" y1="0" x2="32" y2="128" stroke="#1a2332" stroke-width="1"/>
  <line x1="64" y1="0" x2="64" y2="128" stroke="#1a2332" stroke-width="1"/>
  <line x1="96" y1="0" x2="96" y2="128" stroke="#1a2332" stroke-width="1"/>
  <!-- skull/operator icon -->
  <circle cx="64" cy="52" r="24" stroke="#d4a853" stroke-width="2" fill="#0d1117"/>
  <ellipse cx="57" cy="50" rx="5" ry="6" fill="#d4a853" opacity="0.9"/>
  <ellipse cx="71" cy="50" rx="5" ry="6" fill="#d4a853" opacity="0.9"/>
  <ellipse cx="57" cy="49" rx="3" ry="4" fill="#0d1117"/>
  <ellipse cx="71" cy="49" rx="3" ry="4" fill="#0d1117"/>
  <path d="M55 62 Q64 66 73 62" stroke="#d4a853" stroke-width="1.5" fill="none"/>
  <line x1="58" y1="63" x2="58" y2="66" stroke="#d4a853" stroke-width="1.2"/>
  <line x1="64" y1="64" x2="64" y2="67" stroke="#d4a853" stroke-width="1.2"/>
  <line x1="70" y1="63" x2="70" y2="66" stroke="#d4a853" stroke-width="1.2"/>
  <!-- text below -->
  <text x="64" y="100" text-anchor="middle" fill="#d4a853" font-family="monospace" font-size="10" letter-spacing="2">SIGTERM</text>
  <text x="64" y="114" text-anchor="middle" fill="#d4a853" font-family="monospace" font-size="8" opacity="0.6">015</text>
</svg>
